<?xml version="1.0" encoding="utf-8"?>
<svg xmlns="http://www.w3.org/2000/svg" xmlns:xlink="http://www.w3.org/1999/xlink">
    <symbol fill="none" viewBox="0 0 24 24" id="package" xmlns="http://www.w3.org/2000/svg">
        <path
            d="M12 21v-8m0 8-7.06-4.413c-.46-.287-.69-.43-.815-.656C4 15.704 4 15.433 4 14.89V8m8 13 4-2.5 3.06-1.913c.46-.287.69-.43.815-.656.125-.227.125-.498.125-1.04V8m-8 5L4 8m8 5 8-5M4 8l6.94-4.338c.516-.322.773-.483 1.06-.483.287 0 .544.161 1.06.484L20 8"
            stroke="#33363F" stroke-width="2" stroke-linejoin="round" />
        <path
            d="M15 14.5a1 1 0 1 0 2 0h-2Zm.875-3.93.874-.485-.874.484ZM7.47 6.347l7.06 4.413 1.06-1.696-7.06-4.413-1.06 1.696ZM17 14.5v-2.892h-2V14.5h2Zm-2.47-3.74c.246.154.37.233.454.297.067.052.043.046.016-.003l1.75-.97a1.98 1.98 0 0 0-.549-.614c-.177-.136-.397-.272-.611-.405l-1.06 1.696Zm2.47.848c0-.252.001-.51-.02-.733a1.98 1.98 0 0 0-.23-.79l-1.75.97c-.027-.05-.02-.073-.011.01.01.106.011.254.011.543h2Z"
            fill="#33363F" />
    </symbol>
    <symbol fill="none" viewBox="0 0 24 24" id="package_box" xmlns="http://www.w3.org/2000/svg">
        <path
            d="M10 12H7M13 16H7M5.5 20h13a1.5 1.5 0 0 0 1.5-1.5V8.236a1 1 0 0 0-.106-.447l-1.341-2.683A2 2 0 0 0 16.763 4H7.237a2 2 0 0 0-1.789 1.106L4.106 7.789A1 1 0 0 0 4 8.236V18.5A1.5 1.5 0 0 0 5.5 20Z"
            stroke="#33363F" stroke-width="2" stroke-linecap="round" />
        <path d="M5 8h14" stroke="#33363F" stroke-width="2" stroke-linecap="round"
            stroke-linejoin="round" />
        <rect x="14" y="11" width="3" height="3" rx=".5" fill="#33363F" />
    </symbol>

    <symbol fill="currentColor" viewBox="0 0 24 24" id="package_box_alt"
        xmlns="http://www.w3.org/2000/svg">
        <path
            d="M10 14H7M13 17H7M6 20h12a2 2 0 0 0 2-2V6a2 2 0 0 0-2-2H6a2 2 0 0 0-2 2v12a2 2 0 0 0 2 2Z"
            stroke="#fff" stroke-width="1" stroke-linecap="round" />
            
        <rect x="13" y="7" width="4" height="4" rx="1" stroke="#888" stroke-width="2"
            stroke-linecap="round" />
    </symbol>

    <symbol fill="none" viewBox="0 0 24 24" id="package_box_close"
        xmlns="http://www.w3.org/2000/svg">
        <path
            d="M12 8V4M11 16H8M5.5 20h13a1.5 1.5 0 0 0 1.5-1.5V8.236a1 1 0 0 0-.106-.447l-1.341-2.683A2 2 0 0 0 16.763 4H7.237a2 2 0 0 0-1.789 1.106L4.106 7.789A1 1 0 0 0 4 8.236V18.5A1.5 1.5 0 0 0 5.5 20Z"
            stroke="#33363F" stroke-width="2" stroke-linecap="round" />
        <path d="M5 8h14" stroke="#33363F" stroke-width="2" stroke-linecap="round"
            stroke-linejoin="round" />
    </symbol>
    <symbol fill="none" viewBox="0 0 24 24" id="package_car" xmlns="http://www.w3.org/2000/svg">
        <circle cx="16" cy="19" r="2" stroke="#33363F" stroke-width="2" />
        <circle cx="9" cy="19" r="2" stroke="#33363F" stroke-width="2" />
        <path
            d="M5 14h6V7m0 0v2H4v8a2 2 0 0 0 2 2h1m4-12h4l4.625 3.7a1 1 0 0 1 .375.78V13m-3-4h-1v4h4m0 0v4a2 2 0 0 1-2 2m-4 0h-3"
            stroke="#33363F" stroke-width="2" stroke-linecap="round" stroke-linejoin="round" />
    </symbol>
    <symbol fill="none" viewBox="0 0 24 24" id="package_favourite"
        xmlns="http://www.w3.org/2000/svg">
        <path
            d="M5.5 20h13a1.5 1.5 0 0 0 1.5-1.5V8.236a1 1 0 0 0-.106-.447l-1.341-2.683A2 2 0 0 0 16.763 4H7.237a2 2 0 0 0-1.789 1.106L4.106 7.789A1 1 0 0 0 4 8.236V18.5A1.5 1.5 0 0 0 5.5 20Z"
            stroke="#33363F" stroke-width="2" stroke-linecap="round" />
        <path d="M5 8h14M10 4 9 8v6l3-2 3 2V8l-1-4" stroke="#33363F" stroke-width="2"
            stroke-linecap="round" stroke-linejoin="round" />
    </symbol>
    <symbol fill="none" viewBox="0 0 24 24" id="package_favourite_alt"
        xmlns="http://www.w3.org/2000/svg">
        <path d="M6 20h12a2 2 0 0 0 2-2V6a2 2 0 0 0-2-2H6a2 2 0 0 0-2 2v12a2 2 0 0 0 2 2Z"
            stroke="#33363F" stroke-width="2" stroke-linecap="round" />
        <path d="M15 5v7l-3-2-3 2V5" stroke="#33363F" stroke-width="2" stroke-linecap="round"
            stroke-linejoin="round" />
    </symbol>
    <symbol fill="none" viewBox="0 0 24 24" id="package_search" xmlns="http://www.w3.org/2000/svg">
        <path
            d="M12 13v7.098c0 .399 0 .598-.129.67-.129.071-.298-.035-.636-.246L4.94 16.588c-.46-.288-.69-.431-.815-.658C4 15.704 4 15.434 4 14.893V8m8 5L4 8m8 5 5.286-3.304c1.218-.761 1.827-1.142 1.827-1.696s-.609-.935-1.827-1.696L13.06 3.662c-.516-.322-.773-.483-1.06-.483-.287 0-.544.161-1.06.484L4 8"
            stroke="#33363F" stroke-width="2" stroke-linejoin="round" />
        <path
            d="M19 12a1 1 0 1 0 2 0h-2Zm.875-3.93L19 8.553l.875-.485ZM19 9.107V12h2V9.108h-2Zm.59-2.544-3.06-1.912-1.06 1.696 3.06 1.913 1.06-1.696ZM21 9.108c0-.252.001-.51-.02-.733a1.98 1.98 0 0 0-.23-.79l-1.75.97c-.027-.05-.02-.073-.011.01.01.106.011.254.011.543h2Zm-2.47-.848c.246.154.37.233.454.298.067.05.043.045.016-.004l1.75-.97a1.98 1.98 0 0 0-.549-.614c-.177-.136-.397-.272-.611-.405L18.53 8.26Z"
            fill="#33363F" />
        <circle cx="17.5" cy="16.5" r="2.5" stroke="#33363F" stroke-width="2" />
        <path d="m21 20-1.5-1.5" stroke="#33363F" stroke-width="2" stroke-linecap="round" />
        <path
            d="M14.53 20.598a1 1 0 0 0-1.06-1.696l1.06 1.696ZM11 20.375l-.53.848.53-.848Zm.937.444-.063.998.063-.998Zm.126 0L12 19.82l.063.998Zm-.533-1.292-3-1.875-1.06 1.696 3 1.875 1.06-1.696Zm1.94-.625-.5.313 1.06 1.695.5-.312-1.06-1.696Zm-.5.313-.5.312 1.06 1.696.5-.313-1.06-1.695Zm-2.5 2.008c.213.133.429.27.625.368.214.108.47.206.779.226L12 19.82c.056.003.072.022-.005-.016a6.8 6.8 0 0 1-.465-.278l-1.06 1.696Zm2-1.696a6.8 6.8 0 0 1-.465.278c-.077.038-.061.02-.005.016l.126 1.996c.31-.02.565-.118.779-.226.196-.099.412-.235.625-.368l-1.06-1.696Zm-.596 2.29c.084.005.168.005.252 0L12 19.82l-.126 1.996Z"
            fill="#33363F" />
    </symbol>
</svg>