<svg width="1907" height="559" viewBox="0 0 1907 559" fill="none" xmlns="http://www.w3.org/2000/svg">
<path d="M14.7161 528.284C16.8161 528.284 18.916 528.284 21.016 528.084C21.816 527.984 22.716 527.984 23.616 527.884C23.216 527.884 21.9161 528.184 23.7161 527.884C27.6161 527.284 31.516 526.284 35.316 525.084C42.116 522.984 48.716 520.384 55.516 518.084C72.416 512.384 90.216 509.984 107.816 507.784C112.316 507.284 116.616 506.784 120.916 506.184C121.216 506.084 121.516 506.084 121.816 505.984C136.916 502.984 152.016 501.784 166.616 496.784C172.316 494.784 178.316 493.284 183.616 490.384C188.916 487.084 194.116 483.684 199.316 480.084C206.716 475.484 214.016 470.784 221.216 465.884C227.816 460.884 233.916 455.384 240.316 450.084C242.116 447.984 244.216 445.984 246.716 444.284C247.116 443.984 247.416 443.784 247.716 443.584C248.316 443.084 248.816 442.684 249.416 442.284C252.816 439.484 256.316 436.684 260.016 434.284C263.216 432.284 266.616 430.684 270.116 429.184C272.316 427.384 274.416 425.484 276.516 423.384C286.916 412.684 299.416 404.284 310.016 393.684C324.016 379.684 334.716 363.084 346.416 347.184C354.216 336.484 363.316 323.684 374.416 316.284C386.716 307.984 398.316 298.284 410.716 290.184C418.016 285.484 421.816 282.784 427.516 276.584C433.416 270.084 442.816 269.184 450.416 265.284C483.116 248.184 515.416 227.184 551.216 217.484C556.616 215.984 562.016 214.784 567.516 213.584C575.616 209.084 584.016 205.384 592.716 202.684C609.916 197.384 628.516 199.084 646.216 198.784C649.916 198.684 653.516 198.384 657.216 198.284C657.816 198.184 658.516 198.084 659.116 198.084C660.916 197.684 662.816 197.384 664.616 196.984C674.416 194.884 684.416 193.784 694.316 192.584L708.116 191.084C716.116 189.584 724.116 188.084 732.016 188.084C745.016 187.884 758.416 189.284 771.316 190.484C779.616 191.284 787.316 193.584 795.116 195.684C812.416 197.984 829.316 200.884 846.316 205.284C850.316 206.284 854.216 207.284 858.216 208.084C858.816 208.184 861.116 208.584 862.116 208.784C863.216 208.884 864.416 208.984 864.816 208.984C873.616 209.584 882.416 209.984 891.216 211.684C900.616 213.484 909.517 217.984 918.217 221.884C925.417 225.084 932.417 228.484 939.517 231.984C946.817 235.584 954.217 239.284 961.617 242.784C962.617 243.284 963.617 243.784 964.717 244.184C968.417 242.984 973.917 243.384 976.917 243.484C982.217 243.584 987.517 243.484 992.817 243.484C1003.22 243.484 1012.82 246.884 1023.12 248.184C1027.72 248.784 1032.52 248.384 1037.22 248.984C1043.42 249.684 1049.42 251.584 1055.42 252.884C1062.12 254.284 1068.62 256.184 1075.32 257.584C1088.52 260.484 1102.02 262.884 1115.32 265.284C1121.72 266.384 1127.62 268.684 1133.92 270.184C1144.72 272.784 1155.42 275.284 1166.22 277.384L1414.32 217.584C1419.32 214.884 1424.02 211.884 1428.22 207.884C1438.12 198.484 1448.32 188.484 1457.32 178.084C1469.42 164.084 1487.12 156.384 1501.52 144.784C1513.12 135.484 1527.52 125.684 1536.22 113.184C1541.32 105.784 1545.22 102.584 1551.92 96.7842C1559.82 89.8842 1566.02 81.1842 1573.02 73.4842C1581.02 64.7842 1589.42 59.0842 1599.72 53.0842C1605.92 49.4842 1610.22 46.1842 1614.82 40.6842C1620.52 33.8842 1631.82 32.5842 1640.42 30.2842C1657.32 25.6842 1672.42 20.1842 1689.92 17.4842C1698.92 16.0842 1708.62 12.7842 1717.72 12.4842C1722.42 12.3842 1726.62 14.0842 1731.42 13.2842C1738.62 12.0842 1744.92 7.98423 1752.52 7.18423C1761.82 6.18423 1771.82 3.68423 1781.22 3.58423C1783.22 3.58423 1785.12 3.58423 1787.02 3.48423C1796.02 2.38423 1805.02 1.78423 1813.92 1.78423C1816.72 1.78423 1819.42 1.88423 1822.22 1.98423C1828.82 1.48423 1835.32 0.984234 1842.02 0.184234C1853.32 -1.01577 1863.82 3.88423 1874.22 7.98423C1883.02 11.3842 1894.72 8.58423 1902.62 14.6842C1904.02 15.7842 1904.72 16.7842 1905.22 18.4842C1906.52 22.6842 1907.52 26.9842 1903.92 30.1842C1903.52 30.4842 1903.12 30.8842 1902.72 31.1842C1904.62 38.0842 1902.92 45.4842 1897.62 51.1842C1884.82 64.7842 1865.52 71.7842 1847.42 74.6842C1837.42 76.2842 1827.82 77.2842 1817.72 76.2842C1815.62 76.0842 1813.52 76.0842 1811.32 75.9842C1813.42 76.0842 1812.42 75.6842 1811.22 75.9842C1811.12 75.9842 1811.02 76.0842 1810.92 76.0842C1809.92 76.3842 1808.82 76.7842 1807.82 77.0842C1807.42 77.1842 1807.12 77.2842 1806.82 77.3842C1806.22 77.6842 1805.62 78.0842 1805.12 78.2842C1801.52 79.9842 1797.82 81.6842 1794.02 83.0842C1783.32 87.1842 1772.02 86.9842 1760.82 86.1842C1750.02 85.3842 1739.22 86.3842 1728.42 87.5842C1723.12 88.1842 1717.82 88.7842 1712.52 89.1842H1711.62C1710.82 89.3842 1709.82 89.5842 1709.22 89.7842C1706.32 90.3842 1703.42 91.2842 1700.42 91.8842C1694.52 93.1842 1688.62 93.9842 1682.62 93.8842C1678.02 93.7842 1673.42 93.4842 1668.72 93.7842C1668.52 93.7842 1667.82 93.7842 1667.22 93.8842H1666.92C1666.02 93.9842 1665.02 94.1842 1664.12 94.3842C1662.02 94.7842 1659.92 95.1842 1657.72 95.4842C1652.92 96.1842 1648.02 96.7842 1643.22 97.5842C1638.02 98.3842 1632.82 99.1842 1627.72 100.584C1626.82 100.784 1624.52 101.184 1622.72 101.684C1622.72 101.684 1622.32 101.884 1621.32 102.484C1620.02 103.184 1618.82 103.784 1617.52 104.484C1615.02 105.884 1612.32 106.784 1609.52 107.084C1605.62 109.984 1601.02 111.884 1596.12 112.684C1589.92 113.684 1583.72 112.984 1577.52 113.284C1576.02 113.384 1574.52 113.584 1573.12 113.984C1571.72 115.084 1570.22 116.084 1568.62 117.084C1567.52 117.684 1566.42 118.384 1565.32 119.084C1563.42 120.984 1561.72 122.984 1559.92 124.984C1560.82 128.984 1559.92 133.384 1556.82 136.284C1552.62 140.084 1547.92 143.284 1543.52 146.884C1538.72 150.684 1536.12 154.884 1532.32 159.484C1524.52 168.884 1512.72 171.284 1502.12 175.684C1492.92 179.484 1487.92 190.584 1481.32 198.584C1473.72 207.784 1463.72 215.084 1455.52 223.784C1447.12 232.684 1440.02 241.984 1430.12 249.384L1425.92 252.384C1425.72 258.784 1423.32 264.984 1418.22 269.784C1397.02 290.184 1370.42 302.184 1344.72 315.584C1320.82 328.084 1299.72 345.384 1275.32 356.684C1259.92 363.884 1243.92 369.484 1226.72 369.484C1211.12 369.584 1195.62 366.884 1180.02 365.784C1162.72 364.484 1145.72 364.084 1129.22 357.884C1121.72 355.084 1114.32 351.684 1106.72 349.084C1103.22 347.884 1099.62 346.884 1095.92 346.184C1095.22 346.084 1094.62 345.984 1093.92 345.884C1092.32 345.684 1090.82 345.484 1089.22 345.284C1079.52 344.184 1069.52 343.384 1060.32 340.184C1051.82 337.184 1043.92 333.084 1035.82 329.284C1035.12 329.384 1031.12 327.584 1030.32 327.284C1026.82 326.284 1023.22 325.784 1019.72 324.984C1011.72 323.384 1004.32 319.884 997.017 316.384C989.417 312.784 981.817 309.284 974.017 305.984C972.217 305.184 970.517 304.484 968.717 303.684L966.617 302.784L956.417 298.584C940.017 291.684 924.217 283.884 908.217 276.084C904.816 274.484 901.416 272.784 898.016 271.184L892.916 268.784C891.816 268.284 890.616 267.784 889.516 267.284C889.416 267.284 889.316 267.184 889.216 267.184C888.316 266.784 886.116 265.884 885.516 265.684C883.816 265.084 882.116 264.484 880.316 264.084C879.316 263.884 878.416 263.684 877.416 263.484L875.016 263.184C865.516 262.484 856.116 261.984 846.716 260.284C838.916 258.884 831.416 256.684 823.816 254.784C816.016 252.784 808.116 251.284 800.116 249.984C798.516 249.784 796.916 249.484 795.216 249.284C794.416 249.184 793.516 249.084 792.716 248.984C788.516 248.484 784.416 247.984 780.216 247.484C776.316 246.984 772.516 246.584 768.616 245.984C764.916 245.484 761.316 244.984 757.616 244.484C756.616 244.384 755.616 244.184 754.716 244.084C754.516 244.084 754.016 243.984 753.516 243.884H753.016C751.716 243.784 750.416 243.684 749.116 243.484C747.216 243.384 745.216 243.184 743.316 243.184C739.116 242.984 734.816 242.984 730.616 243.184C722.416 243.384 714.216 244.084 706.116 244.984C701.816 245.384 697.616 245.884 693.316 246.384C691.316 246.584 689.416 246.884 687.416 247.084H687.116C687.816 246.984 687.916 246.884 686.016 247.184H685.816C685.616 247.184 685.416 247.284 685.216 247.284H685.616C676.416 249.184 667.216 251.084 657.816 251.884C649.316 252.684 640.816 252.484 632.316 252.484C628.416 252.484 624.416 252.484 620.516 252.584C618.516 252.684 616.616 252.784 614.616 252.884C614.116 252.884 613.616 252.984 613.116 252.984C610.516 254.284 606.416 254.584 603.616 255.484C603.516 255.484 603.416 255.584 603.316 255.584C601.416 256.484 599.516 257.384 597.616 258.384C594.516 259.984 591.516 261.584 588.516 263.284C586.916 264.184 585.316 265.084 583.816 266.084C583.116 266.584 580.216 268.684 579.916 268.784C579.616 269.084 579.216 269.284 579.116 269.384C577.816 270.484 576.416 271.484 575.116 272.584C570.616 276.084 566.216 279.684 561.316 282.584C559.616 283.584 557.816 284.584 556.116 285.584C555.716 291.584 553.316 297.484 548.516 301.784C544.516 305.384 540.716 309.084 537.216 313.084C536.916 313.384 536.516 313.884 536.216 314.384V314.484C535.816 314.984 535.416 315.484 534.916 315.984C535.216 315.584 535.516 315.284 535.816 314.984C534.516 316.884 533.316 318.784 532.216 320.684C531.116 322.684 530.016 324.784 529.016 326.784C529.116 326.584 529.116 326.284 529.216 326.084C529.116 326.484 528.916 326.884 528.816 327.284C528.816 327.384 528.716 327.384 528.716 327.484C528.416 328.184 528.016 328.984 527.816 329.684C524.416 338.184 520.816 344.584 514.716 351.584C507.216 360.284 497.016 366.584 487.216 372.484C478.216 377.784 469.716 383.484 461.416 389.784C441.716 404.684 422.716 419.684 399.516 428.784C389.316 432.784 378.416 433.884 367.916 436.584C366.016 437.084 364.116 437.684 362.216 438.284L359.516 439.784C358.916 440.084 357.516 441.384 356.716 441.784C353.616 444.484 350.416 446.984 347.116 449.484C334.216 459.484 320.416 466.584 305.316 472.684C302.016 473.984 298.616 475.284 295.216 476.584C294.216 476.984 293.216 477.384 292.316 477.784C291.616 478.084 290.816 478.484 290.116 478.784C289.116 479.284 288.116 479.884 287.216 480.484L285.416 481.684C281.716 484.784 277.816 487.684 273.916 490.484C271.316 492.284 268.316 493.384 265.216 493.984C250.916 501.884 233.016 504.384 220.116 511.184C205.016 519.084 188.416 523.584 172.116 527.884C137.516 537.084 102.416 535.384 68.616 545.584C50.616 551.084 34.416 558.484 15.116 558.384C7.21597 558.284 -0.384009 551.484 0.0159912 543.284C-0.0840088 535.284 6.21606 528.184 14.7161 528.284ZM1904.92 23.7842C1904.62 25.3842 1904.72 26.5842 1904.72 27.3842C1905.52 29.5842 1905.82 18.3842 1904.12 18.4842C1904.62 19.5842 1905.42 21.2842 1904.92 23.7842ZM1807.62 77.1842C1807.52 77.1842 1807.52 77.1842 1807.42 77.2842C1807.42 77.1842 1807.52 77.1842 1807.62 77.1842ZM1666.62 93.9842C1666.02 93.9842 1665.42 94.0842 1665.32 94.1842C1665.92 94.0842 1666.32 94.0842 1666.62 93.9842ZM1622.42 101.784C1621.42 102.084 1620.52 102.484 1620.22 102.884C1620.32 102.784 1622.02 101.984 1622.42 101.784ZM684.816 247.184H684.116C684.316 247.284 684.616 247.184 684.816 247.184ZM612.816 252.984C612.416 252.984 611.916 253.084 611.516 253.084C607.716 253.284 611.216 253.384 612.816 252.984ZM686.716 246.984C686.316 247.084 685.816 247.184 685.316 247.184H685.516C685.916 247.084 686.316 246.984 686.716 246.984ZM536.916 313.284L537.016 313.184C537.816 312.284 538.216 312.184 535.616 315.084C535.716 314.884 535.816 314.684 536.016 314.584C536.216 314.084 536.516 313.684 536.916 313.284ZM528.716 326.984L528.816 326.884C527.316 332.384 527.716 329.584 528.516 327.584C528.516 327.484 528.616 327.484 528.616 327.384C528.616 327.184 528.616 327.084 528.716 326.984Z" fill="#EEEEEE"/>
</svg>
