<svg width="285" height="307" viewBox="0 0 285 307" fill="none" xmlns="http://www.w3.org/2000/svg">
<path d="M284.824 204.749C285.039 196.156 285.471 187.099 283.098 178.739C283.098 178.506 282.883 178.274 282.883 178.042V134.614C282.883 133.452 282.451 132.523 281.804 131.827C281.589 121.608 279.648 111.39 276.844 101.404C275.334 96.0622 273.824 90.4885 271.236 85.6115C269.295 81.6635 266.275 78.4122 264.334 74.4642C264.334 74.2319 264.119 73.9997 264.119 73.7674C264.119 73.5352 263.903 73.5352 263.903 73.303C263.687 72.8385 263.687 72.6063 263.472 72.1418C263.256 71.4451 262.825 70.7484 262.393 70.2839C259.374 64.7102 255.276 59.8332 251.394 54.9562C249.021 51.9371 246.649 48.9181 244.061 46.3635C242.551 44.97 241.257 43.5766 239.747 42.1832C235.434 37.7707 230.689 33.8226 225.944 29.8746C224.003 28.0167 222.061 26.1588 220.12 24.5331C217.101 22.2108 213.65 20.5851 210.631 18.7272C207.395 16.8693 204.376 14.7792 201.141 12.689C194.455 8.74101 187.553 6.1864 179.789 5.72192C179.357 5.72192 178.926 5.72192 178.495 5.95416C178.063 5.72192 177.632 5.72192 177.201 5.48968C172.887 3.63178 168.358 2.4706 163.613 1.54165C162.75 1.30941 161.887 1.54165 161.025 1.77389C158.437 1.30941 155.848 0.844939 153.26 0.612702C147.221 -0.316247 141.398 -0.0840097 135.575 0.612702C129.751 1.54165 124.144 2.23836 118.321 2.93508C112.066 3.63179 106.027 5.02521 99.9879 7.57982C92.4392 9.43772 84.8904 11.0634 78.4201 15.7081C77.7731 16.1726 77.3417 16.8693 76.9103 17.566C76.479 17.566 76.0476 17.7983 75.4006 18.2627C68.4989 22.9075 60.9501 26.6233 54.4798 32.197C51.029 35.2161 48.0095 38.4674 44.9901 41.7187C41.7549 44.97 38.7353 48.2213 35.7158 51.9371C34.8531 52.8661 34.2061 53.795 33.559 54.724C17.1675 75.6253 6.38369 101.171 3.57988 129.272C3.14852 129.737 2.71717 130.433 2.50149 131.362C1.63878 134.846 1.6388 138.329 1.85448 141.813C1.42312 143.671 0.991769 145.297 0.776091 147.154C-0.733654 156.676 0.776038 165.966 2.07011 175.255C2.07011 175.952 1.85448 176.881 1.85448 177.578C1.6388 180.829 1.85448 184.312 1.85448 187.564C1.85448 190.583 1.85443 193.834 2.07011 196.853C1.85443 198.014 1.8544 198.943 1.63872 200.105C1.20737 203.82 0.991716 207.768 0.991716 211.484C0.991716 217.058 1.8544 222.399 2.71711 227.741C2.93279 233.779 2.07005 239.817 1.20734 245.855C0.560308 251.661 0.560334 257.235 0.560334 262.809C0.560334 269.544 -0.518029 277.44 0.991716 284.174C0.776038 285.568 0.560387 286.729 0.344709 288.122C-0.302325 292.767 -0.302377 298.341 2.71711 302.057V303.45H4.22688C5.0896 303.915 6.16796 303.915 7.03067 303.45H8.10906C10.0502 304.147 12.2069 304.379 14.148 304.379C16.0891 304.379 18.0302 304.611 19.9713 305.076C22.1281 305.54 24.2849 306.005 26.4417 306.005C28.5985 306.005 30.5395 305.308 32.4806 305.076C34.4217 304.611 36.5786 304.611 38.5197 304.844C42.8333 305.076 46.9311 304.147 51.2446 303.915C53.4014 303.682 55.5582 303.915 57.715 304.379C58.1463 304.611 58.7933 304.844 59.4404 305.076C70.0086 306.237 80.5768 305.772 91.145 305.54C101.713 305.308 112.282 305.772 122.634 305.308C125.438 305.308 128.026 304.844 130.83 304.611C139.888 304.844 149.162 305.308 158.221 305.308C171.809 305.54 185.396 305.773 198.984 305.773C206.101 305.773 213.003 307.166 220.12 305.54C226.591 306.005 233.061 306.469 239.531 306.469C247.296 306.469 255.06 306.005 262.609 306.469C267.354 306.701 273.177 307.863 277.706 305.773C280.294 306.934 283.745 304.611 282.883 301.128C282.02 297.876 282.02 294.625 282.02 291.142C282.02 287.658 282.236 283.942 282.451 280.459C282.883 276.511 283.53 272.563 283.961 268.382C284.392 264.202 284.177 260.022 284.177 256.074C283.961 247.481 284.392 238.888 284.392 230.295C284.824 221.935 284.608 213.342 284.824 204.749ZM214.513 288.355C211.062 288.355 207.827 288.122 204.376 288.355C200.925 288.587 197.69 289.284 194.239 289.98C192.945 290.213 191.867 290.445 190.573 290.445H172.671C166.201 289.98 159.946 289.051 153.476 288.819C138.81 288.355 124.359 289.516 109.693 289.748C95.4587 289.98 81.0082 289.051 66.7735 289.748C58.7934 289.98 50.8134 289.284 42.8333 288.587C35.9316 288.122 28.5985 290.213 21.9125 288.122C21.0498 287.89 20.187 287.89 19.54 288.122C19.1086 287.89 18.8929 287.658 18.4616 287.426C18.2459 287.194 18.0303 286.729 17.5989 286.497C17.5989 286.265 17.3832 286.265 17.3832 286.032C17.1675 285.568 16.9519 285.336 16.7362 284.871C16.5205 284.407 16.3048 284.174 16.0892 283.71C15.8735 283.478 15.8735 283.478 16.0892 283.478C16.0892 283.478 16.0892 283.245 15.8735 283.245C15.4422 281.852 15.0108 280.459 14.7952 278.833V144.135C14.7952 129.737 17.1676 115.802 21.4811 102.797L24.0693 95.83C25.7947 91.6497 27.7357 87.4695 29.6768 83.2892C33.7747 76.7865 39.3823 70.2839 44.3429 64.478C48.8722 59.3687 54.4798 55.8852 59.4404 51.2404C61.3815 49.3825 63.107 47.5246 65.0481 45.6667C67.2048 44.97 69.3615 44.2733 71.3026 43.3444C74.3221 41.9509 76.6946 39.6286 79.7141 38.4674C82.5179 37.3062 85.5374 36.3772 88.3412 35.6805C91.1451 35.4483 94.1646 34.9838 96.9684 34.5193C105.38 33.5904 114.007 33.1259 122.418 33.1259H126.085C126.948 33.8226 128.242 34.2871 129.32 33.8226L129.967 33.5904H131.045C131.908 33.5904 132.771 33.8226 133.634 34.0549C135.575 34.5193 137.516 35.2161 139.241 35.6805C143.986 36.8417 148.731 37.7707 153.476 39.6286C159.946 42.1832 165.985 45.899 172.024 49.3825C180.436 56.8141 187.122 65.8714 192.514 76.0898C198.984 88.3984 204.16 101.404 210.199 113.944C212.572 118.821 215.16 123.698 217.317 128.808C218.826 133.917 219.905 139.026 220.983 144.135V144.832C220.767 147.154 221.199 149.477 221.846 151.799C222.277 154.122 222.709 156.212 222.709 158.302C222.924 163.411 222.493 168.288 223.14 173.397C224.003 180.597 225.728 187.564 226.806 194.531L227.453 198.711C227.669 200.105 227.669 201.266 227.885 202.659C228.316 207.768 227.669 212.878 227.238 217.755C226.806 223.096 226.806 228.205 226.806 233.547C226.806 238.656 227.022 243.765 227.453 249.107C227.885 253.751 228.532 258.628 228.747 263.273C228.963 271.401 228.101 279.762 229.61 287.89C225.081 288.355 219.689 288.587 214.513 288.355Z" fill="#DDDDDD"/>
</svg>
