<svg width="1907" height="559" viewBox="0 0 1907 559" fill="none" xmlns="http://www.w3.org/2000/svg">
<path d="M1891.69 528.284C1889.59 528.284 1887.49 528.284 1885.39 528.084C1884.59 527.984 1883.69 527.984 1882.79 527.884C1883.19 527.884 1884.49 528.184 1882.69 527.884C1878.79 527.284 1874.89 526.284 1871.09 525.084C1864.29 522.984 1857.69 520.384 1850.89 518.084C1833.99 512.384 1816.19 509.984 1798.59 507.784C1794.09 507.284 1789.79 506.784 1785.49 506.184C1785.19 506.084 1784.89 506.084 1784.59 505.984C1769.49 502.984 1754.39 501.784 1739.79 496.784C1734.09 494.784 1728.09 493.284 1722.79 490.384C1717.49 487.084 1712.29 483.684 1707.09 480.084C1699.69 475.484 1692.39 470.784 1685.19 465.884C1678.59 460.884 1672.49 455.384 1666.09 450.084C1664.29 447.984 1662.19 445.984 1659.69 444.284C1659.29 443.984 1658.99 443.784 1658.69 443.584C1658.09 443.084 1657.59 442.684 1656.99 442.284C1653.59 439.484 1650.09 436.684 1646.39 434.284C1643.19 432.284 1639.79 430.684 1636.29 429.184C1634.09 427.384 1631.99 425.484 1629.89 423.384C1619.49 412.684 1606.99 404.284 1596.39 393.684C1582.39 379.684 1571.69 363.084 1559.99 347.184C1552.19 336.484 1543.09 323.684 1531.99 316.284C1519.69 307.984 1508.09 298.284 1495.69 290.184C1488.39 285.484 1484.59 282.784 1478.89 276.584C1472.99 270.084 1463.59 269.184 1455.99 265.284C1423.29 248.184 1390.99 227.184 1355.19 217.484C1349.79 215.984 1344.39 214.784 1338.89 213.584C1330.79 209.084 1322.39 205.384 1313.69 202.684C1296.49 197.384 1277.89 199.084 1260.19 198.784C1256.49 198.684 1252.89 198.384 1249.19 198.284C1248.59 198.184 1247.89 198.084 1247.29 198.084C1245.49 197.684 1243.59 197.384 1241.79 196.984C1231.99 194.884 1221.99 193.784 1212.09 192.584L1198.29 191.084C1190.29 189.584 1182.29 188.084 1174.39 188.084C1161.39 187.884 1147.99 189.284 1135.09 190.484C1126.79 191.284 1119.09 193.584 1111.29 195.684C1093.99 197.984 1077.09 200.884 1060.09 205.284C1056.09 206.284 1052.19 207.284 1048.19 208.084C1047.59 208.184 1045.29 208.584 1044.29 208.784C1043.19 208.884 1041.99 208.984 1041.59 208.984C1032.79 209.584 1023.99 209.984 1015.19 211.684C1005.79 213.484 996.889 217.984 988.189 221.884C980.989 225.084 973.989 228.484 966.889 231.984C959.589 235.584 952.189 239.284 944.789 242.784C943.789 243.284 942.789 243.784 941.689 244.184C937.989 242.984 932.489 243.384 929.489 243.484C924.189 243.584 918.889 243.484 913.589 243.484C903.189 243.484 893.589 246.884 883.289 248.184C878.689 248.784 873.889 248.384 869.189 248.984C862.989 249.684 856.989 251.584 850.989 252.884C844.289 254.284 837.789 256.184 831.089 257.584C817.889 260.484 804.389 262.884 791.089 265.284C784.689 266.384 778.789 268.684 772.489 270.184C761.689 272.784 750.989 275.284 740.189 277.384L492.089 217.584C487.089 214.884 482.389 211.884 478.189 207.884C468.289 198.484 458.089 188.484 449.089 178.084C436.989 164.084 419.289 156.384 404.889 144.784C393.289 135.484 378.889 125.684 370.189 113.184C365.089 105.784 361.189 102.584 354.489 96.7842C346.589 89.8842 340.389 81.1842 333.389 73.4842C325.389 64.7842 316.989 59.0842 306.689 53.0842C300.489 49.4842 296.189 46.1842 291.589 40.6842C285.889 33.8842 274.589 32.5842 265.989 30.2842C249.089 25.6842 233.989 20.1842 216.489 17.4842C207.489 16.0842 197.789 12.7842 188.689 12.4842C183.989 12.3842 179.789 14.0842 174.989 13.2842C167.789 12.0842 161.489 7.98423 153.889 7.18423C144.589 6.18423 134.589 3.68423 125.189 3.58423C123.189 3.58423 121.289 3.58423 119.389 3.48423C110.389 2.38423 101.389 1.78423 92.4892 1.78423C89.6892 1.78423 86.9892 1.88423 84.1892 1.98423C77.5892 1.48423 71.0892 0.984234 64.3892 0.184234C53.0892 -1.01577 42.5892 3.88423 32.1892 7.98423C23.3892 11.3842 11.6892 8.58423 3.78924 14.6842C2.38924 15.7842 1.68924 16.7842 1.18924 18.4842C-0.110762 22.6842 -1.11076 26.9842 2.48924 30.1842C2.88924 30.4842 3.28924 30.8842 3.68924 31.1842C1.78924 38.0842 3.48924 45.4842 8.78924 51.1842C21.5892 64.7842 40.8892 71.7842 58.9892 74.6842C68.9892 76.2842 78.5892 77.2842 88.6892 76.2842C90.7892 76.0842 92.8892 76.0842 95.0892 75.9842C92.9892 76.0842 93.9892 75.6842 95.1892 75.9842C95.2892 75.9842 95.3892 76.0842 95.4892 76.0842C96.4892 76.3842 97.5892 76.7842 98.5892 77.0842C98.9892 77.1842 99.2892 77.2842 99.5892 77.3842C100.189 77.6842 100.789 78.0842 101.289 78.2842C104.889 79.9842 108.589 81.6842 112.389 83.0842C123.089 87.1842 134.389 86.9842 145.589 86.1842C156.389 85.3842 167.189 86.3842 177.989 87.5842C183.289 88.1842 188.589 88.7842 193.889 89.1842H194.789C195.589 89.3842 196.589 89.5842 197.189 89.7842C200.089 90.3842 202.989 91.2842 205.989 91.8842C211.889 93.1842 217.789 93.9842 223.789 93.8842C228.389 93.7842 232.989 93.4842 237.689 93.7842C237.889 93.7842 238.589 93.7842 239.189 93.8842H239.489C240.389 93.9842 241.389 94.1842 242.289 94.3842C244.389 94.7842 246.489 95.1842 248.689 95.4842C253.489 96.1842 258.389 96.7842 263.189 97.5842C268.389 98.3842 273.589 99.1842 278.689 100.584C279.589 100.784 281.889 101.184 283.689 101.684C283.689 101.684 284.089 101.884 285.089 102.484C286.389 103.184 287.589 103.784 288.889 104.484C291.389 105.884 294.089 106.784 296.889 107.084C300.789 109.984 305.389 111.884 310.289 112.684C316.489 113.684 322.689 112.984 328.889 113.284C330.389 113.384 331.889 113.584 333.289 113.984C334.689 115.084 336.189 116.084 337.789 117.084C338.889 117.684 339.989 118.384 341.089 119.084C342.989 120.984 344.689 122.984 346.489 124.984C345.589 128.984 346.489 133.384 349.589 136.284C353.789 140.084 358.489 143.284 362.889 146.884C367.689 150.684 370.289 154.884 374.089 159.484C381.889 168.884 393.689 171.284 404.289 175.684C413.489 179.484 418.489 190.584 425.089 198.584C432.689 207.784 442.689 215.084 450.889 223.784C459.289 232.684 466.389 241.984 476.289 249.384L480.489 252.384C480.689 258.784 483.089 264.984 488.189 269.784C509.389 290.184 535.989 302.184 561.689 315.584C585.589 328.084 606.689 345.384 631.089 356.684C646.489 363.884 662.489 369.484 679.689 369.484C695.289 369.584 710.789 366.884 726.389 365.784C743.689 364.484 760.689 364.084 777.189 357.884C784.689 355.084 792.089 351.684 799.689 349.084C803.189 347.884 806.789 346.884 810.489 346.184C811.189 346.084 811.789 345.984 812.489 345.884C814.089 345.684 815.589 345.484 817.189 345.284C826.889 344.184 836.889 343.384 846.089 340.184C854.589 337.184 862.489 333.084 870.589 329.284C871.289 329.384 875.289 327.584 876.089 327.284C879.589 326.284 883.189 325.784 886.689 324.984C894.689 323.384 902.089 319.884 909.389 316.384C916.989 312.784 924.589 309.284 932.389 305.984C934.189 305.184 935.889 304.484 937.689 303.684L939.789 302.784L949.989 298.584C966.389 291.684 982.189 283.884 998.189 276.084C1001.59 274.484 1004.99 272.784 1008.39 271.184L1013.49 268.784C1014.59 268.284 1015.79 267.784 1016.89 267.284C1016.99 267.284 1017.09 267.184 1017.19 267.184C1018.09 266.784 1020.29 265.884 1020.89 265.684C1022.59 265.084 1024.29 264.484 1026.09 264.084C1027.09 263.884 1027.99 263.684 1028.99 263.484L1031.39 263.184C1040.89 262.484 1050.29 261.984 1059.69 260.284C1067.49 258.884 1074.99 256.684 1082.59 254.784C1090.39 252.784 1098.29 251.284 1106.29 249.984C1107.89 249.784 1109.49 249.484 1111.19 249.284C1111.99 249.184 1112.89 249.084 1113.69 248.984C1117.89 248.484 1121.99 247.984 1126.19 247.484C1130.09 246.984 1133.89 246.584 1137.79 245.984C1141.49 245.484 1145.09 244.984 1148.79 244.484C1149.79 244.384 1150.79 244.184 1151.69 244.084C1151.89 244.084 1152.39 243.984 1152.89 243.884H1153.39C1154.69 243.784 1155.99 243.684 1157.29 243.484C1159.19 243.384 1161.19 243.184 1163.09 243.184C1167.29 242.984 1171.59 242.984 1175.79 243.184C1183.99 243.384 1192.19 244.084 1200.29 244.984C1204.59 245.384 1208.79 245.884 1213.09 246.384C1215.09 246.584 1216.99 246.884 1218.99 247.084H1219.29C1218.59 246.984 1218.49 246.884 1220.39 247.184H1220.59C1220.79 247.184 1220.99 247.284 1221.19 247.284H1220.79C1229.99 249.184 1239.19 251.084 1248.59 251.884C1257.09 252.684 1265.59 252.484 1274.09 252.484C1277.99 252.484 1281.99 252.484 1285.89 252.584C1287.89 252.684 1289.79 252.784 1291.79 252.884C1292.29 252.884 1292.79 252.984 1293.29 252.984C1295.89 254.284 1299.99 254.584 1302.79 255.484C1302.89 255.484 1302.99 255.584 1303.09 255.584C1304.99 256.484 1306.89 257.384 1308.79 258.384C1311.89 259.984 1314.89 261.584 1317.89 263.284C1319.49 264.184 1321.09 265.084 1322.59 266.084C1323.29 266.584 1326.19 268.684 1326.49 268.784C1326.79 269.084 1327.19 269.284 1327.29 269.384C1328.59 270.484 1329.99 271.484 1331.29 272.584C1335.79 276.084 1340.19 279.684 1345.09 282.584C1346.79 283.584 1348.59 284.584 1350.29 285.584C1350.69 291.584 1353.09 297.484 1357.89 301.784C1361.89 305.384 1365.69 309.084 1369.19 313.084C1369.49 313.384 1369.89 313.884 1370.19 314.384V314.484C1370.59 314.984 1370.99 315.484 1371.49 315.984C1371.19 315.584 1370.89 315.284 1370.59 314.984C1371.89 316.884 1373.09 318.784 1374.19 320.684C1375.29 322.684 1376.39 324.784 1377.39 326.784C1377.29 326.584 1377.29 326.284 1377.19 326.084C1377.29 326.484 1377.49 326.884 1377.59 327.284C1377.59 327.384 1377.69 327.384 1377.69 327.484C1377.99 328.184 1378.39 328.984 1378.59 329.684C1381.99 338.184 1385.59 344.584 1391.69 351.584C1399.19 360.284 1409.39 366.584 1419.19 372.484C1428.19 377.784 1436.69 383.484 1444.99 389.784C1464.69 404.684 1483.69 419.684 1506.89 428.784C1517.09 432.784 1527.99 433.884 1538.49 436.584C1540.39 437.084 1542.29 437.684 1544.19 438.284L1546.89 439.784C1547.49 440.084 1548.89 441.384 1549.69 441.784C1552.79 444.484 1555.99 446.984 1559.29 449.484C1572.19 459.484 1585.99 466.584 1601.09 472.684C1604.39 473.984 1607.79 475.284 1611.19 476.584C1612.19 476.984 1613.19 477.384 1614.09 477.784C1614.79 478.084 1615.59 478.484 1616.29 478.784C1617.29 479.284 1618.29 479.884 1619.19 480.484L1620.99 481.684C1624.69 484.784 1628.59 487.684 1632.49 490.484C1635.09 492.284 1638.09 493.384 1641.19 493.984C1655.49 501.884 1673.39 504.384 1686.29 511.184C1701.39 519.084 1717.99 523.584 1734.29 527.884C1768.89 537.084 1803.99 535.384 1837.79 545.584C1855.79 551.084 1871.99 558.484 1891.29 558.384C1899.19 558.284 1906.79 551.484 1906.39 543.284C1906.49 535.284 1900.19 528.184 1891.69 528.284ZM1.49024 23.7842C1.79024 25.3842 1.69024 26.5842 1.69024 27.3842C0.890238 29.5842 0.590237 18.3842 2.29024 18.4842C1.79024 19.5842 0.990238 21.2842 1.49024 23.7842ZM98.7902 77.1842C98.8902 77.1842 98.8902 77.1842 98.9902 77.2842C98.9902 77.1842 98.8902 77.1842 98.7902 77.1842ZM239.789 93.9842C240.389 93.9842 240.989 94.0842 241.089 94.1842C240.489 94.0842 240.089 94.0842 239.789 93.9842ZM283.989 101.784C284.989 102.084 285.889 102.484 286.189 102.884C286.089 102.784 284.389 101.984 283.989 101.784ZM1221.59 247.184H1222.29C1222.09 247.284 1221.79 247.184 1221.59 247.184ZM1293.59 252.984C1293.99 252.984 1294.49 253.084 1294.89 253.084C1298.69 253.284 1295.19 253.384 1293.59 252.984ZM1219.69 246.984C1220.09 247.084 1220.59 247.184 1221.09 247.184H1220.89C1220.49 247.084 1220.09 246.984 1219.69 246.984ZM1369.49 313.284L1369.39 313.184C1368.59 312.284 1368.19 312.184 1370.79 315.084C1370.69 314.884 1370.59 314.684 1370.39 314.584C1370.19 314.084 1369.89 313.684 1369.49 313.284ZM1377.69 326.984L1377.59 326.884C1379.09 332.384 1378.69 329.584 1377.89 327.584C1377.89 327.484 1377.79 327.484 1377.79 327.384C1377.79 327.184 1377.79 327.084 1377.69 326.984Z" fill="#EEEEEE"/>
</svg>
